<svg width="1024" height="1024" version="1.1" viewBox="0 0 1024 1024" xmlns="http://www.w3.org/2000/svg">
  <path fill="#fff" d="m840.751,352.495l-190.823,-199.947c-28.103,-29.449 -74.758,-30.538 -104.207,-2.434l-173.286,165.38c-34.368,32.8 -49.413,78.234 -44.822,122.09a36.79,36.79 0 0 0 -10.322,6.95l-93.31,89.051c-14.722,14.052 -15.268,37.379 -1.216,52.102l165.38,173.288c14.052,14.724 37.379,15.268 52.103,1.218l93.308,-89.051a36.77,36.77 0 0 0 7.424,-9.987c43.595,6.633 89.681,-6.275 124.049,-39.074l173.288,-165.381c29.448,-28.103 30.537,-74.758 2.434,-104.205zm-372.019,267.247l-39.988,38.166c-7.363,7.024 -19.027,6.753 -26.051,-0.608l-114.495,-119.969c-7.026,-7.361 -6.753,-19.025 0.608,-26.053l39.99,-38.164c7.361,-7.026 19.025,-6.753 26.051,0.61l114.494,119.967c7.025,7.363 6.754,19.027 -0.609,26.051zm312.994,-239.882l-159.957,152.656c-44.171,42.155 -114.153,40.521 -156.308,-3.65l-63.607,-66.649c-42.157,-44.171 -40.523,-114.151 3.648,-156.307l159.959,-152.658c7.361,-7.026 19.025,-6.753 26.051,0.608l190.822,199.947c7.026,7.363 6.754,19.025 -0.608,26.053zm-597.777,441.938c-10.189,0 -18.449,8.259 -18.449,18.449c0,10.189 8.259,18.447 18.449,18.447c10.189,0 18.449,-8.258 18.449,-18.447c-0.001,-10.19 -8.26,-18.449 -18.449,-18.449zm55.345,-147.591c0,-10.187 -8.259,-18.449 -18.449,-18.449c-10.189,0 -18.449,8.261 -18.449,18.449c0,10.191 8.259,18.449 18.449,18.449c10.19,-0.001 18.449,-8.258 18.449,-18.449zm0,92.245c-10.189,0 -18.449,8.259 -18.449,18.449c0,10.187 8.259,18.449 18.449,18.449c10.189,0 18.449,-8.261 18.449,-18.449c0,-10.19 -8.259,-18.449 -18.449,-18.449zm36.898,92.241c-10.189,0 -18.449,8.261 -18.449,18.449c0,10.191 8.259,18.451 18.449,18.451c10.189,0 18.449,-8.259 18.449,-18.451c-0.001,-10.188 -8.26,-18.449 -18.449,-18.449zm564.795,-506.71l-191.056,-200.192c-28.138,-29.485 -74.85,-30.575 -104.334,-2.437l-33.364,31.842l0.445,0.408c-6.74,5.047 -11.102,13.097 -11.102,22.165c0,15.283 12.39,27.673 27.673,27.673c9.928,0 18.63,-5.231 23.513,-13.085l0.357,0.327l30.691,-29.291c7.37,-7.034 19.048,-6.761 26.083,0.609l191.056,200.192c6.923,7.255 6.753,18.67 -0.279,25.734l-191.403,0c-10.189,0 -18.449,8.259 -18.449,18.449c0,10.189 8.259,18.449 18.449,18.449l152.776,0l-121.856,116.296c-44.218,42.2 -114.269,40.571 -156.478,-3.631l-63.757,-66.805c-12.783,-13.412 -21.53,-29.199 -26.292,-45.86l48.57,0c10.189,0 18.449,-8.259 18.449,-18.449c0,-10.189 -8.259,-18.449 -18.449,-18.449l-52.651,0c1.556,-27.018 12.955,-53.531 34.077,-73.689l64.148,-61.22a27.858,27.858 0 0 0 4.19,-3.998l2.099,-2.004l-0.333,-0.305a27.533,27.533 0 0 0 4.815,-15.597c0,-15.285 -12.39,-27.673 -27.673,-27.673a27.557,27.557 0 0 0 -17.517,6.251l-0.179,-0.164l-81.108,77.407c-34.41,32.841 -49.473,78.329 -44.877,122.24a36.825,36.825 0 0 0 -10.334,6.958l-93.424,89.16c-14.74,14.069 -15.287,37.425 -1.218,52.165l165.582,173.5c14.069,14.742 37.425,15.287 52.167,1.219l93.422,-89.16a36.816,36.816 0 0 0 7.433,-9.999c43.648,6.641 89.791,-6.282 124.201,-39.122l173.5,-165.582c29.485,-28.137 30.575,-74.849 2.437,-104.332zm-372.474,304.471l-40.037,38.213c-7.372,7.034 -19.05,6.761 -26.083,-0.609l26.691,-25.474c7.37,-7.036 7.643,-18.714 0.609,-26.085c-7.034,-7.37 -18.712,-7.643 -26.083,-0.609l-26.693,25.474l-25.474,-26.692l40.039,-38.21c7.37,-7.034 7.643,-18.712 0.609,-26.084c-7.034,-7.37 -18.712,-7.643 -26.085,-0.609l-40.037,38.211l-12.737,-13.346l26.691,-25.474c7.372,-7.034 7.645,-18.712 0.609,-26.083c-7.034,-7.37 -18.712,-7.645 -26.083,-0.609l-26.692,25.474c-7.034,-7.37 -6.761,-19.048 0.609,-26.083l40.039,-38.213c7.37,-7.034 19.048,-6.761 26.083,0.611l114.634,120.115c7.034,7.371 6.763,19.049 -0.609,26.082zm-155.424,73.101c-10.189,0 -18.449,8.259 -18.449,18.449c0,10.187 8.259,18.449 18.449,18.449c10.189,0 18.449,-8.261 18.449,-18.449c0,-10.19 -8.26,-18.449 -18.449,-18.449zm202.935,-276.73c10.189,0 18.449,-8.259 18.449,-18.449c0,-10.189 -8.259,-18.449 -18.449,-18.449c-10.189,0 -18.449,8.259 -18.449,18.449c0,10.19 8.26,18.449 18.449,18.449zm-147.589,350.524c-10.189,0 -18.449,8.259 -18.449,18.449c0,10.189 8.259,18.449 18.449,18.449c10.189,0 18.449,-8.259 18.449,-18.449c0,-10.19 -8.26,-18.449 -18.449,-18.449z"/>
</svg>
